<?xml version="1.0" standalone="no"?>
<!DOCTYPE svg PUBLIC "-//W3C//DTD SVG 20010904//EN"
 "http://www.w3.org/TR/2001/REC-SVG-20010904/DTD/svg10.dtd">
<svg version="1.0" xmlns="http://www.w3.org/2000/svg"
 width="205.000000pt" height="256.000000pt" viewBox="0 0 205.000000 256.000000"
 preserveAspectRatio="xMidYMid meet">

<g transform="translate(0.000000,256.000000) scale(0.100000,-0.100000)"
fill="#000000" stroke="none">
<path d="M800 2543 c0 -10 -28 -96 -62 -190 l-62 -173 -36 -1 c-19 -1 -43 -1
-52 0 -11 2 -18 -5 -18 -14 0 -16 21 -16 83 2 16 4 18 1 12 -19 -12 -38 -23
-43 -47 -22 l-23 19 19 -22 c18 -22 18 -24 -30 -164 -27 -79 -54 -144 -59
-146 -6 -2 -21 6 -33 17 -11 11 -25 20 -29 20 -4 0 -8 -64 -8 -142 l0 -143
-128 -350 c-71 -192 -135 -360 -143 -372 -12 -19 -12 -23 0 -30 8 -4 72 -75
141 -158 l127 -149 -4 -173 c-2 -95 -1 -173 0 -173 2 0 15 9 29 20 45 36 55
23 27 -36 -9 -19 -15 -36 -13 -39 2 -2 64 5 138 16 134 19 134 19 148 -1 19
-28 33 -25 33 6 0 24 3 26 33 21 17 -3 82 4 142 15 61 10 171 27 245 38 l135
18 27 -26 c15 -14 40 -43 54 -64 15 -21 32 -37 37 -35 5 1 10 34 11 72 l1 69
135 18 c74 10 155 19 179 21 46 3 66 21 34 29 -10 3 -93 58 -185 124 l-168
118 0 73 0 73 192 96 c106 53 195 97 197 99 2 3 -7 9 -20 14 -13 5 -98 60
-189 123 l-165 113 -3 546 -2 546 65 29 c35 16 65 35 65 43 0 9 -7 11 -22 7
-13 -4 -43 -10 -67 -13 l-43 -6 3 53 c3 36 0 55 -8 57 -7 3 -13 -3 -13 -13 0
-10 -7 -37 -16 -60 -14 -37 -21 -43 -53 -48 -33 -6 -228 -29 -465 -56 -55 -7
-106 -14 -113 -17 -12 -5 -14 22 -11 176 2 140 0 181 -9 181 -7 0 -13 -8 -13
-17z m5 -309 c-4 -22 -13 -34 -28 -38 -32 -8 -77 -7 -77 2 0 9 85 246 98 272
9 18 15 -193 7 -236z m672 54 c-3 -8 -6 -5 -6 6 -1 11 2 17 5 13 3 -3 4 -12 1
-19z m83 -13 c0 -2 -13 -11 -30 -20 -26 -13 -30 -13 -30 -1 0 8 6 17 13 19 16
7 47 8 47 2z m-80 -25 c0 -10 -9 -24 -20 -30 -23 -12 -24 -11 -10 24 11 31 30
34 30 6z m-53 -22 c-10 -26 -30 -42 -93 -75 l-79 -41 -83 50 c-46 28 -81 52
-79 55 6 6 262 41 310 42 l37 1 -13 -32z m53 -170 l-1 -153 -24 30 c-14 17
-37 47 -52 68 l-26 38 23 67 c20 59 50 101 73 102 4 0 7 -69 7 -152z m-410
125 c14 -9 27 -19 30 -22 3 -3 27 -17 54 -31 27 -14 51 -33 54 -43 3 -10 8
-14 11 -9 6 11 113 -50 119 -67 2 -5 -3 -15 -11 -22 -7 -8 -12 -19 -10 -24 1
-6 -33 -107 -76 -225 l-78 -215 -87 -8 c-90 -9 -122 -5 -111 14 4 6 1 9 -7 7
-18 -4 -168 93 -168 109 0 7 -6 10 -12 8 -7 -3 -26 5 -41 17 l-28 23 31 85
c18 47 37 88 43 92 6 4 9 10 5 13 -5 5 53 189 87 276 5 12 27 19 83 26 42 6
79 11 82 12 3 0 17 -7 30 -16z m-340 -32 c-30 -16 -56 -28 -58 -26 -9 9 21 44
40 48 67 13 72 6 18 -22z m657 -38 c-11 -32 -22 -60 -23 -62 -4 -5 -84 42 -84
49 0 7 109 69 121 70 4 0 -3 -26 -14 -57z m-631 -183 c-42 -117 -78 -215 -81
-218 -2 -3 -29 11 -59 31 l-55 37 50 148 51 148 81 41 c45 22 83 37 85 33 1
-3 -31 -103 -72 -220z m638 25 c9 -14 14 -30 11 -35 -3 -6 -1 -10 6 -10 6 0
22 -12 35 -27 24 -28 24 -29 23 -278 -1 -137 -4 -292 -8 -343 l-6 -93 -132 91
-133 91 0 72 c0 66 7 93 80 293 44 120 84 220 89 222 5 2 7 12 4 22 -7 28 12
25 31 -5z m-879 -165 c6 -10 -32 -140 -41 -140 -2 0 -4 38 -4 85 0 82 1 85 19
75 11 -5 23 -15 26 -20z m97 -61 c26 -17 48 -33 48 -34 0 -4 -146 -85 -153
-85 -3 0 6 34 20 75 13 41 27 75 31 75 3 0 27 -14 54 -31z m211 -158 l133 -89
-1 -273 c-2 -283 -7 -330 -46 -397 l-19 -33 35 -30 35 -31 0 -137 0 -136 -105
-53 -104 -53 -136 96 -135 97 1 381 c1 210 4 442 8 515 l6 133 90 49 c50 27
93 49 97 49 4 1 68 -39 141 -88z m-380 -870 l-8 -154 -101 119 c-55 65 -108
130 -116 144 -15 24 -11 38 105 358 l122 334 3 -324 c1 -178 -1 -392 -5 -477z
m697 734 c-6 -19 -14 -35 -16 -35 -9 0 -104 65 -104 72 0 10 124 15 128 6 2
-4 -2 -24 -8 -43z m-53 -33 l32 -27 -59 -160 -59 -160 0 203 -1 203 28 -16
c15 -9 41 -28 59 -43z m69 -19 c-11 -11 -19 6 -11 24 8 17 8 17 12 0 3 -10 2
-21 -1 -24z m2 -441 c-2 -296 -6 -406 -15 -409 -6 -2 -41 31 -77 74 l-66 78 0
162 0 161 65 178 c36 98 65 180 65 182 0 3 7 -1 15 -8 13 -11 15 -66 13 -418z
m180 290 l122 -83 0 -160 c0 -105 -4 -159 -11 -159 -5 0 -8 -4 -5 -9 3 -4 -6
-43 -20 -85 l-26 -77 -98 -49 -99 -50 0 128 c0 70 -3 244 -7 386 -6 221 -5
258 7 250 8 -4 69 -46 137 -92z m491 -338 c11 -10 -16 -27 -159 -99 -95 -47
-174 -85 -176 -83 -2 2 -1 95 3 205 l6 202 156 -106 c86 -58 162 -112 170
-119z m-871 -121 l-3 -38 -17 26 c-17 24 -17 28 0 75 l17 49 3 -37 c2 -21 2
-55 0 -75z m513 -76 c-18 -18 -25 1 -11 30 l14 28 4 -24 c2 -13 -1 -28 -7 -34z
m2 -84 l-6 -52 -24 16 c-20 14 -24 22 -19 47 7 33 35 61 48 48 4 -4 5 -31 1
-59z m-363 -90 c0 -5 -25 -21 -55 -36 l-55 -27 0 101 0 100 55 -65 c30 -35 55
-68 55 -73z m270 98 c0 -8 -31 -97 -86 -250 -3 -10 -18 0 -49 35 -38 42 -44
55 -45 94 l0 46 83 41 c88 45 97 48 97 34z m64 -62 c26 -20 26 -20 26 -169 l0
-148 -46 -4 c-43 -3 -48 -1 -79 36 l-33 40 47 133 c25 73 49 133 52 133 4 0
18 -9 33 -21z m218 -154 c86 -60 155 -111 154 -113 -3 -2 -302 -42 -318 -42
-5 0 -8 61 -8 136 0 75 4 134 8 132 5 -1 79 -52 164 -113z m-508 64 c-3 -5
-31 -9 -62 -9 l-57 1 45 24 c41 21 47 22 62 8 10 -9 15 -20 12 -24z m-635 -53
l52 -64 -18 -62 c-15 -54 -21 -64 -55 -81 l-38 -19 0 145 c0 80 2 145 4 145 2
0 27 -29 55 -64z m191 -98 c0 -14 -21 -8 -53 14 -41 27 -97 80 -97 90 0 10
150 -94 150 -104z m509 65 c23 -27 41 -51 41 -55 0 -3 -48 -34 -107 -68 -92
-52 -118 -63 -185 -72 -43 -6 -79 -9 -81 -7 -2 2 -26 32 -55 65 -39 47 -49 64
-39 72 6 5 50 29 97 53 83 42 130 53 247 57 38 2 45 -2 82 -45z m-600 -77 l23
-25 -41 -20 c-22 -12 -42 -21 -45 -21 -3 0 2 20 11 45 8 25 18 45 22 45 4 0
18 -11 30 -24z m141 -28 l24 -33 -24 16 c-14 8 -31 19 -38 23 -12 7 -8 26 7
26 4 0 18 -15 31 -32z m596 -45 c-4 -4 -229 -33 -233 -29 -2 2 36 27 84 55
l88 50 32 -37 c17 -20 30 -38 29 -39z m-566 -54 c0 -36 -19 -27 -69 30 -28 33
-51 62 -51 66 0 3 27 -13 60 -37 34 -24 60 -49 60 -59z m-48 -27 c-19 -6 -218
-29 -222 -25 -2 2 2 23 10 46 12 34 25 47 65 70 l50 27 52 -57 c29 -32 50 -59
45 -61z m728 26 l0 -53 -35 40 c-40 46 -41 52 -17 58 48 13 52 9 52 -45z
m-645 -8 c3 -5 1 -10 -4 -10 -6 0 -11 5 -11 10 0 6 2 10 4 10 3 0 8 -4 11 -10z"/>
<path d="M1185 2060 c3 -5 8 -10 11 -10 2 0 4 5 4 10 0 6 -5 10 -11 10 -5 0
-7 -4 -4 -10z"/>
<path d="M777 903 c-4 -3 -7 -11 -7 -17 0 -6 5 -5 12 2 6 6 9 14 7 17 -3 3 -9
2 -12 -2z"/>
<path d="M1215 721 c-9 -16 9 -20 23 -5 10 12 10 14 -2 14 -8 0 -17 -4 -21 -9z"/>
</g>
</svg>
